<svg width="1920" height="1000" viewBox="0 0 1920 1000" fill="none" xmlns="http://www.w3.org/2000/svg">
<g opacity="0.5" filter="url(#filter0_f_115_1884)">
<circle cx="513.5" cy="666.5" r="206.5" fill="#F04451" fill-opacity="0.5"/>
</g>
<g opacity="0.5" filter="url(#filter1_f_115_1884)">
<circle cx="1441.5" cy="323.5" r="206.5" fill="#F04451" fill-opacity="0.5"/>
</g>
<path d="M1025.58 827.166L1025.58 827.165C1028.49 811.972 1032.36 796.973 1037.16 782.258C1037.22 782.087 1037.28 781.93 1037.34 781.769C1037.39 781.646 1037.43 781.52 1037.48 781.383L1037.48 781.382C1037.99 779.955 1038.51 778.56 1039.05 777.222C1044.28 787.919 1051.35 797.6 1059.93 805.826C1073.73 819.654 1089.68 831.14 1107.15 839.846C1089.13 847.488 1068.96 848.184 1050.55 841.774L1049.75 841.497L1049.85 842.085L1043.02 848.016L1026.21 862.622L1025.95 862.394L1024.51 861.151L1021.29 858.371C1021.76 851.185 1022.61 844.026 1023.82 836.923L1023.82 836.92C1024.36 833.678 1024.94 830.413 1025.58 827.166Z" stroke="white"/>
<path d="M208.201 771.313C208.806 760.177 208.711 749.017 207.916 737.902C207.754 735.524 207.555 733.143 207.323 730.788C206.843 725.555 206.09 720.352 205.065 715.202C203.502 714.444 200.429 712.953 200.429 712.953L191.307 726.497L187.56 732.06L187.57 732.081C173.267 731.04 159.071 735.495 147.822 744.555C147.965 744.579 148.118 744.608 148.264 744.633C162.07 747.398 175.327 752.413 187.516 759.481C195.19 763.702 202.037 769.295 207.727 775.989C207.894 774.708 208.027 773.363 208.141 771.987C208.16 771.76 208.183 771.541 208.201 771.313Z" fill="#343849"/>
<path d="M211.641 319.388C206.092 320.572 200.623 322.107 195.269 323.985C194.122 324.383 192.979 324.799 191.852 325.229C189.345 326.165 186.889 327.234 184.495 328.43C184.328 329.31 184 331.038 184 331.038L191.852 333.77L195.078 334.893L195.087 334.885C196.457 342.141 200.514 348.611 206.444 353C206.436 352.926 206.431 352.846 206.424 352.77C205.965 345.531 206.684 338.266 208.551 331.258C209.615 326.877 211.461 322.724 214 319C213.349 319.088 212.671 319.201 211.98 319.328C211.866 319.348 211.756 319.366 211.641 319.388Z" fill="#343849"/>
<path d="M1691.6 341.773C1697.78 336.197 1703.6 330.232 1709.02 323.914C1710.18 322.567 1711.33 321.198 1712.45 319.826C1714.94 316.794 1717.27 313.632 1719.44 310.353C1719 309.111 1718.15 306.67 1718.15 306.67L1706.16 308.947L1701.24 309.883L1701.24 309.899C1694.16 301.664 1684.25 296.399 1673.49 295.157C1673.55 295.246 1673.62 295.344 1673.68 295.436C1679.59 304.318 1684.02 314.097 1686.8 324.391C1688.67 330.751 1689.38 337.393 1688.89 343.997C1689.66 343.408 1690.43 342.767 1691.22 342.099C1691.35 341.989 1691.47 341.885 1691.6 341.773Z" fill="#343849"/>
<path d="M1148.82 149.569C1148.97 151.088 1149.11 152.623 1149.22 154.155C1149.75 161.322 1149.84 168.515 1149.46 175.692C1149.46 175.776 1149.45 175.859 1149.44 175.942C1149.44 176.003 1149.43 176.064 1149.43 176.126C1149.37 176.776 1149.31 177.415 1149.24 178.035L1110.76 158.457C1110.93 158.321 1111.11 158.188 1111.28 158.056M1148.82 149.569C1148.49 146.195 1147.99 142.84 1147.32 139.519M1148.82 149.569L1148.82 149.569L1148.82 149.569ZM1147.32 139.519L1144.29 138.06M1147.32 139.519L1147.1 139.969L1146.88 139.861M1147.32 139.519L1146.83 139.619C1146.84 139.699 1146.86 139.78 1146.88 139.861M1144.29 138.06L1138.38 146.773L1135.96 150.34L1135.96 150.349L1136.41 150.142L1136.41 150.156L1136.53 150.399M1144.29 138.06L1144.71 138.341L1144.47 138.698M1144.29 138.06L1144.08 138.511L1144.08 138.511L1144.08 138.511L1144.08 138.511L1144.08 138.514L1144.1 138.522L1144.17 138.553L1144.41 138.669L1144.47 138.698M1136.53 150.399L1136.37 150.633L1135.97 150.362L1135.96 150.357L1135.96 150.366L1135.5 150.575L1135.5 150.562L1135.39 150.327C1126.49 149.798 1117.7 152.495 1110.63 157.921C1110.85 157.965 1111.06 158.01 1111.28 158.056M1136.53 150.399L1138.8 147.054L1144.47 138.698M1136.53 150.399L1136.77 150.928L1135.92 150.864C1127.1 150.203 1118.35 152.766 1111.28 158.056M1111.28 158.056C1120.04 159.903 1128.46 163.12 1136.22 167.59C1140.94 170.174 1145.19 173.535 1148.8 177.53C1148.84 177.058 1148.89 176.576 1148.93 176.086L1148.93 176.085C1148.93 176.012 1148.94 175.949 1148.94 175.889C1148.95 175.814 1148.96 175.742 1148.96 175.66C1149.34 168.506 1149.25 161.336 1148.72 154.193L1148.72 154.191C1148.61 152.664 1148.47 151.134 1148.32 149.62L1148.32 149.617L1148.32 149.617C1148.01 146.342 1147.52 143.086 1146.88 139.861M1146.88 139.861L1145.21 139.055L1144.47 138.698" stroke="white"/>
<defs>
<filter id="filter0_f_115_1884" x="-193" y="-40" width="1413" height="1413" filterUnits="userSpaceOnUse" color-interpolation-filters="sRGB">
<feFlood flood-opacity="0" result="BackgroundImageFix"/>
<feBlend mode="normal" in="SourceGraphic" in2="BackgroundImageFix" result="shape"/>
<feGaussianBlur stdDeviation="250" result="effect1_foregroundBlur_115_1884"/>
</filter>
<filter id="filter1_f_115_1884" x="735" y="-383" width="1413" height="1413" filterUnits="userSpaceOnUse" color-interpolation-filters="sRGB">
<feFlood flood-opacity="0" result="BackgroundImageFix"/>
<feBlend mode="normal" in="SourceGraphic" in2="BackgroundImageFix" result="shape"/>
<feGaussianBlur stdDeviation="250" result="effect1_foregroundBlur_115_1884"/>
</filter>
</defs>
</svg>
